<svg width="38" height="35" viewBox="0 0 38 35" fill="none" xmlns="http://www.w3.org/2000/svg">
<path d="M15.7244 0.592354C8.94812 1.08965 3.43241 6.16495 2.35404 12.8857C2.29575 13.266 2.24475 13.7194 2.24475 13.8876C2.24475 14.224 2.23017 14.2459 1.71285 14.575C1.2611 14.8749 0.83121 15.4745 0.678198 16.0523C0.57619 16.4472 0.561618 16.9006 0.583476 19.7966L0.605335 23.0875L0.802065 23.5043C1.0498 24.0455 1.55984 24.5794 2.04073 24.828C2.57263 25.0986 3.19196 25.1717 4.99167 25.1717H6.52908L6.55822 26.5759L6.58008 27.9873L6.82053 28.4992C7.08283 29.055 7.57102 29.6108 8.03734 29.8814C8.6931 30.269 8.89712 30.2909 11.9282 30.2909H14.7407L16.5987 32.4995C17.6188 33.7135 18.5441 34.7665 18.6534 34.8543C18.9085 35.0371 19.4914 35.0518 19.761 34.8762C19.863 34.8104 20.7883 33.7573 21.8157 32.536L23.681 30.3275L26.6392 30.2909C29.5391 30.2544 29.612 30.247 30.0273 30.0862C30.6539 29.8302 31.3024 29.194 31.6157 28.5211L31.8635 27.9873L31.8853 26.5759L31.9145 25.1717H33.4519C35.2224 25.1717 35.8636 25.0986 36.3882 24.8426C36.8618 24.6086 37.3937 24.0455 37.6415 23.5043L37.8382 23.0875L37.8601 19.7966C37.8819 16.9006 37.8674 16.4472 37.7653 16.0523C37.6123 15.4745 37.1824 14.8749 36.7307 14.575C36.534 14.4507 36.3445 14.3191 36.3008 14.2825C36.2571 14.2459 36.1988 13.9534 36.1697 13.6243C36.0166 11.7522 35.2734 9.49973 34.2388 7.7519C32.2351 4.38055 29.0072 1.94528 25.284 1.0092C23.783 0.628922 23.2802 0.585041 19.7682 0.563103C17.9685 0.548477 16.147 0.563103 15.7244 0.592354ZM22.6172 2.7936C24.3877 2.93987 25.8304 3.3494 27.3751 4.14653C30.8434 5.94556 33.2187 9.21452 33.9036 13.1124C34.0858 14.1509 34.1805 14.0558 32.9564 14.0558H31.8999V13.3611C31.8999 12.9881 31.8635 12.4981 31.8197 12.286C31.5793 11.1525 30.6467 10.2091 29.51 9.96777C29.2331 9.90927 26.2749 9.88733 19.2218 9.88733C12.1687 9.88733 9.21043 9.90927 8.93355 9.96777C7.82604 10.2018 6.9444 11.0647 6.64566 12.1836C6.58737 12.3884 6.54365 12.893 6.54365 13.3026V14.0558H5.48714C4.26305 14.0558 4.35777 14.1436 4.53264 13.1417C4.86052 11.2914 5.47985 9.71912 6.47807 8.22725C8.5328 5.16305 12.0302 3.10075 15.6952 2.80091C16.7663 2.71316 21.5388 2.70584 22.6172 2.7936ZM29.2768 12.191C29.7359 12.4323 29.714 12.0081 29.714 20.0891C29.714 28.1701 29.7359 27.746 29.2768 27.9873C29.0947 28.0824 28.5992 28.097 26.0344 28.097C23.6227 28.097 22.9596 28.1189 22.7629 28.1994C22.5953 28.2725 22.0416 28.8722 20.8976 30.2251C20.0014 31.2855 19.2509 32.1558 19.2218 32.1558C19.1926 32.1558 18.4421 31.2855 17.5459 30.2251C16.402 28.8722 15.8482 28.2725 15.6806 28.1994C15.4839 28.1189 14.8209 28.097 12.4164 28.097C10.6313 28.097 9.31972 28.0677 9.21043 28.0239C9.10842 27.9873 8.95541 27.8483 8.87526 27.7167C8.72953 27.4827 8.72953 27.3437 8.72953 20.1037C8.72953 13.6682 8.74411 12.7029 8.83883 12.52C9.07928 12.0593 8.40165 12.0886 19.2072 12.0813C27.8779 12.0813 29.0947 12.0959 29.2768 12.191ZM6.54365 19.6211V22.9851L4.78766 22.9632C3.04624 22.9412 3.03167 22.9412 2.89323 22.7657C2.76207 22.6048 2.75479 22.4366 2.75479 19.5991V16.6081L2.93694 16.4326L3.11181 16.2497H4.83138H6.54365V19.6211ZM35.5066 16.4326L35.6888 16.6081V19.5991C35.6888 22.4366 35.6815 22.6048 35.5503 22.7657C35.4119 22.9412 35.3973 22.9412 33.6559 22.9632L31.8999 22.9851V19.6211V16.2497H33.6122H35.3317L35.5066 16.4326Z" fill="#FBFCFE"/>
<path d="M14.267 16.2717C13.5311 16.6593 13.4874 17.6612 14.1942 18.1365C14.5148 18.3559 15.0758 18.334 15.4183 18.0926C15.7024 17.8879 15.9065 17.376 15.8409 17.0249C15.7534 16.5496 15.2288 16.1035 14.7552 16.1035C14.6605 16.1035 14.4419 16.1766 14.267 16.2717Z" fill="#FBFCFE"/>
<path d="M22.7192 16.2717C21.9833 16.6593 21.9396 17.6612 22.6463 18.1365C22.9669 18.3559 23.528 18.334 23.8704 18.0926C24.1546 17.8879 24.3586 17.376 24.293 17.0249C24.2056 16.5496 23.681 16.1035 23.2074 16.1035C23.1126 16.1035 22.8941 16.1766 22.7192 16.2717Z" fill="#FBFCFE"/>
<path d="M13.9536 21.0179C13.6695 21.1861 13.3926 21.6468 13.3926 21.9393C13.3926 22.4074 13.7059 22.7804 14.7041 23.497C15.7169 24.221 16.8536 24.7037 18.0849 24.9158C20.198 25.2814 22.413 24.6233 24.3366 23.0583C24.7592 22.7145 25.0506 22.2684 25.0506 21.954C25.0506 21.6249 24.7737 21.1861 24.4604 21.0106C23.965 20.7327 23.6662 20.8058 22.8137 21.4494C22.0414 22.0344 21.218 22.4586 20.4603 22.6633C19.8264 22.8315 18.6241 22.8315 17.9829 22.6633C17.2834 22.4805 16.2779 21.954 15.5493 21.3982C15.0101 20.9813 14.8571 20.9009 14.573 20.8789C14.3106 20.857 14.1649 20.8936 13.9536 21.0179Z" fill="#FBFCFE"/>
</svg>
