<svg width="20" height="23" viewBox="0 0 20 23" fill="none" xmlns="http://www.w3.org/2000/svg">
<path d="M13.125 22.7533H6.125C4.96468 22.7533 3.85188 22.2924 3.03141 21.4719C2.21094 20.6514 1.75 19.5386 1.75 18.3783V7.87833C1.75 7.64626 1.84219 7.4237 2.00628 7.25961C2.17038 7.09551 2.39294 7.00333 2.625 7.00333C2.85706 7.00333 3.07962 7.09551 3.24372 7.25961C3.40781 7.4237 3.5 7.64626 3.5 7.87833V18.3783C3.5 19.0745 3.77656 19.7422 4.26884 20.2345C4.76113 20.7268 5.42881 21.0033 6.125 21.0033H13.125C13.8212 21.0033 14.4889 20.7268 14.9812 20.2345C15.4734 19.7422 15.75 19.0745 15.75 18.3783V7.87833C15.75 7.64626 15.8422 7.4237 16.0063 7.25961C16.1704 7.09551 16.3929 7.00333 16.625 7.00333C16.8571 7.00333 17.0796 7.09551 17.2437 7.25961C17.4078 7.4237 17.5 7.64626 17.5 7.87833V18.3783C17.5 19.5386 17.0391 20.6514 16.2186 21.4719C15.3981 22.2924 14.2853 22.7533 13.125 22.7533Z" fill="#FBFCFE"/>
<path d="M18.375 5.25333H0.875C0.642936 5.25333 0.420376 5.16114 0.256282 4.99704C0.0921874 4.83295 0 4.61039 0 4.37833C0 4.14626 0.0921874 3.9237 0.256282 3.75961C0.420376 3.59551 0.642936 3.50333 0.875 3.50333H18.375C18.6071 3.50333 18.8296 3.59551 18.9937 3.75961C19.1578 3.9237 19.25 4.14626 19.25 4.37833C19.25 4.61039 19.1578 4.83295 18.9937 4.99704C18.8296 5.16114 18.6071 5.25333 18.375 5.25333Z" fill="#FBFCFE"/>
<path d="M13.125 5.25333H6.125C5.89294 5.25333 5.67038 5.16114 5.50628 4.99704C5.34219 4.83295 5.25 4.61039 5.25 4.37833V2.62833C5.25 1.93213 5.52656 1.26445 6.01884 0.772171C6.51113 0.279888 7.17881 0.00332642 7.875 0.00332642H11.375C12.0712 0.00332642 12.7389 0.279888 13.2312 0.772171C13.7234 1.26445 14 1.93213 14 2.62833V4.37833C14 4.61039 13.9078 4.83295 13.7437 4.99704C13.5796 5.16114 13.3571 5.25333 13.125 5.25333ZM7 3.50333H12.25V2.62833C12.25 2.39626 12.1578 2.1737 11.9937 2.00961C11.8296 1.84551 11.6071 1.75333 11.375 1.75333H7.875C7.64294 1.75333 7.42038 1.84551 7.25628 2.00961C7.09219 2.1737 7 2.39626 7 2.62833V3.50333Z" fill="#FBFCFE"/>
<path d="M7.875 17.5033C7.64294 17.5033 7.42038 17.4111 7.25628 17.247C7.09219 17.083 7 16.8604 7 16.6283V10.5033C7 10.2713 7.09219 10.0487 7.25628 9.88461C7.42038 9.72051 7.64294 9.62833 7.875 9.62833C8.10706 9.62833 8.32962 9.72051 8.49372 9.88461C8.65781 10.0487 8.75 10.2713 8.75 10.5033V16.6283C8.75 16.8604 8.65781 17.083 8.49372 17.247C8.32962 17.4111 8.10706 17.5033 7.875 17.5033Z" fill="#FBFCFE"/>
<path d="M11.375 17.5033C11.1429 17.5033 10.9204 17.4111 10.7563 17.247C10.5922 17.083 10.5 16.8604 10.5 16.6283V10.5033C10.5 10.2713 10.5922 10.0487 10.7563 9.88461C10.9204 9.72051 11.1429 9.62833 11.375 9.62833C11.6071 9.62833 11.8296 9.72051 11.9937 9.88461C12.1578 10.0487 12.25 10.2713 12.25 10.5033V16.6283C12.25 16.8604 12.1578 17.083 11.9937 17.247C11.8296 17.4111 11.6071 17.5033 11.375 17.5033Z" fill="#FBFCFE"/>
</svg>
