<?xml version="1.0" encoding="UTF-8" standalone="no"?>
<svg
   width="20"
   height="20"
   viewBox="0 0 24.850894 24.850894"
   fill="none"
   version="1.1"
   id="svg4"
   sodipodi:docname="edit-btn.svg"
   inkscape:version="1.4 (86a8ad7, 2024-10-11)"
   xmlns:inkscape="http://www.inkscape.org/namespaces/inkscape"
   xmlns:sodipodi="http://sodipodi.sourceforge.net/DTD/sodipodi-0.dtd"
   xmlns="http://www.w3.org/2000/svg"
   xmlns:svg="http://www.w3.org/2000/svg">
  <sodipodi:namedview
     id="namedview4"
     pagecolor="#000000"
     bordercolor="#000000"
     borderopacity="0.25"
     inkscape:showpageshadow="2"
     inkscape:pageopacity="0.0"
     inkscape:pagecheckerboard="0"
     inkscape:deskcolor="#d1d1d1"
     inkscape:zoom="28.361588"
     inkscape:cx="9.5022888"
     inkscape:cy="13.874399"
     inkscape:window-width="1920"
     inkscape:window-height="1009"
     inkscape:window-x="1912"
     inkscape:window-y="-8"
     inkscape:window-maximized="1"
     inkscape:current-layer="svg4" />
  <path
     d="m 19.229782,1.7614076 c 0.499218,-0.4992433 1.17639,-0.77972429 1.882423,-0.77972429 0.706033,0 1.383203,0.28048099 1.882418,0.77972429 0.499221,0.4992561 0.779702,1.1763756 0.779702,1.8824218 0,0.7060462 -0.280481,1.3831783 -0.779702,1.8824217 l -11.922,11.9219789 -5.0197917,1.254948 1.2549475,-5.01979 z"
     stroke="#fbfcfe"
     stroke-width="2.10961"
     stroke-linecap="round"
     stroke-linejoin="round"
     shape-rendering="crispEdges"
     id="path1" />
  <path
     d="M 12.32757,1.1339211 H 3.5429358 c -0.6656617,0 -1.3040664,0.26443 -1.7747597,0.7351234 -0.4707058,0.4707057 -0.735136,1.1090979 -0.735136,1.7747722 V 21.213072 c 0,0.665626 0.2644302,1.304019 0.735136,1.774748 0.4706933,0.470733 1.109098,0.735149 1.7747597,0.735149 H 21.112205 c 0.665624,0 1.304016,-0.264416 1.774748,-0.735149 0.470728,-0.470729 0.735146,-1.109122 0.735146,-1.774748 v -8.784634"
     stroke="#fbfcfe"
     stroke-width="2.10961"
     stroke-linecap="round"
     stroke-linejoin="round"
     id="path2" />
  <defs
     id="defs4">
    <filter
       id="filter0_d_220_172"
       x="0"
       y="0"
       width="24.1213"
       height="24.1213"
       filterUnits="userSpaceOnUse"
       color-interpolation-filters="sRGB">
      <feColorMatrix
         in="SourceAlpha"
         type="matrix"
         values="0 0 0 0 0 0 0 0 0 0 0 0 0 0 0 0 0 0 127 0"
         result="hardAlpha"
         id="feColorMatrix2" />
      <feOffset
         dy="4"
         id="feOffset2" />
      <feGaussianBlur
         stdDeviation="2"
         id="feGaussianBlur2" />
      <feComposite
         in2="hardAlpha"
         operator="out"
         id="feComposite2" />
      <feColorMatrix
         type="matrix"
         values="0 0 0 0 0 0 0 0 0 0 0 0 0 0 0 0 0 0 0.25 0"
         id="feColorMatrix3" />
      <feBlend
         mode="normal"
         in2="BackgroundImageFix"
         result="effect1_dropShadow_220_172"
         id="feBlend3" />
      <feBlend
         mode="normal"
         in="SourceGraphic"
         in2="effect1_dropShadow_220_172"
         result="shape"
         id="feBlend4" />
    </filter>
  </defs>
</svg>
