<svg width="37" height="37" viewBox="0 0 37 37" fill="none" xmlns="http://www.w3.org/2000/svg">
<path d="M32.7784 4.22322C30.5309 1.84593 27.0201 0.66332 23.8155 1.21541C21.5078 1.60458 19.6403 2.88976 18.5192 4.82659C17.4255 2.85658 15.6154 1.55631 13.3432 1.13998C10.1687 0.563764 6.50753 1.80068 4.21894 4.2202C3.20808 5.28872 2.40227 6.5706 1.8494 7.98961C1.29654 9.40863 1.00792 10.9358 1.0007 12.4804C0.984163 14.0825 1.25982 15.672 1.81128 17.1543C2.36274 18.6366 3.17874 19.9813 4.21074 21.1086L17.1329 35.3753C17.3109 35.5733 17.5225 35.7304 17.7558 35.8376C17.989 35.9448 18.2392 36 18.4919 36C18.7445 36 18.9947 35.9448 19.2279 35.8376C19.4612 35.7304 19.6729 35.5733 19.8508 35.3753L32.7812 21.1056C33.8143 19.9794 34.6316 18.6355 35.1845 17.1537C35.7374 15.672 36.0145 14.0827 35.9994 12.4804C35.9915 10.9361 35.7022 9.40937 35.1489 7.99089C34.5956 6.5724 33.7895 5.29113 32.7784 4.22322ZM31.6246 19.8264L18.6997 34.0962C18.6741 34.1263 18.6432 34.1504 18.6088 34.1668C18.5745 34.1832 18.5375 34.1917 18.5001 34.1917C18.4626 34.1917 18.4256 34.1832 18.3913 34.1668C18.3569 34.1504 18.326 34.1263 18.3005 34.0962L5.37554 19.8264C4.49786 18.8696 3.80351 17.7278 3.33379 16.4689C2.86407 15.21 2.62856 13.8598 2.64127 12.4985C2.64749 11.1947 2.89131 9.90555 3.35822 8.70782C3.82513 7.51009 4.50559 6.4282 5.35914 5.5265C6.96962 3.81594 9.40039 2.81133 11.7273 2.81133C12.1797 2.81089 12.6315 2.85125 13.078 2.932C14.4451 3.17938 16.2689 3.9336 17.2942 6.11781C17.4095 6.36179 17.5825 6.56686 17.7947 6.71131C18.007 6.85576 18.2507 6.93422 18.5001 6.93839C18.7431 6.93905 18.9818 6.86703 19.1908 6.72998C19.3997 6.59293 19.5711 6.39597 19.6867 6.16004C20.7504 3.9879 22.6452 3.24575 24.0452 3.00441C26.7166 2.54584 29.7598 3.55951 31.6191 5.52952C32.4763 6.42881 33.1606 7.50929 33.6313 8.70658C34.102 9.90386 34.3494 11.1934 34.3588 12.4985C34.3716 13.8598 34.136 15.21 33.6663 16.4689C33.1966 17.7278 32.5023 18.8696 31.6246 19.8264Z" fill="#FBFCFE" stroke="#FBFCFE" stroke-width="2"/>
</svg>
