<svg width="35" height="29" viewBox="0 0 35 29" fill="none" xmlns="http://www.w3.org/2000/svg">
<path d="M32.7914 6.92091H23.9826V2.24052C23.9826 1.82675 23.8189 1.42992 23.5273 1.13734C23.2358 0.84476 22.8405 0.680389 22.4282 0.680389H12.0666C11.6543 0.680389 11.2589 0.84476 10.9674 1.13734C10.6759 1.42992 10.5121 1.82675 10.5121 2.24052V13.1614H1.70333C1.29108 13.1614 0.895708 13.3258 0.6042 13.6184C0.312693 13.911 0.148926 14.3078 0.148926 14.7216V27.2026C0.148926 27.6164 0.312693 28.0132 0.6042 28.3058C0.895708 28.5984 1.29108 28.7628 1.70333 28.7628H32.7914C33.2037 28.7628 33.5991 28.5984 33.8906 28.3058C34.1821 28.0132 34.3458 27.6164 34.3458 27.2026V8.48105C34.3458 8.06727 34.1821 7.67045 33.8906 7.37787C33.5991 7.08529 33.2037 6.92091 32.7914 6.92091ZM10.5121 25.6425H3.25774V16.2817H10.5121V25.6425ZM20.8738 8.48105V25.6425H13.621V3.80065H20.8738V8.48105ZM31.237 25.6425H23.9826V10.0412H31.237V25.6425Z" fill="#FBFCFE"/>
</svg>
